<?xml version="1.0" standalone="no"?>
<!DOCTYPE svg PUBLIC "-//W3C//DTD SVG 20010904//EN"
 "http://www.w3.org/TR/2001/REC-SVG-20010904/DTD/svg10.dtd">
<svg version="1.0" xmlns="http://www.w3.org/2000/svg"
 width="24.000000pt" height="24.000000pt" viewBox="0 0 24.000000 24.000000"
 preserveAspectRatio="xMidYMid meet">

<g transform="translate(0.000000,24.000000) scale(0.100000,-0.100000)"
fill="#000000" stroke="none">
<path d="M70 233 c-75 -27 -90 -124 -26 -175 23 -19 82 -23 106 -8 11 7 23 1
47 -22 43 -41 56 -28 15 15 -23 24 -29 36 -22 47 15 24 11 83 -8 106 -30 38
-72 52 -112 37z m84 -34 c57 -45 21 -139 -55 -139 -71 0 -105 85 -54 135 30
31 73 32 109 4z"/>
<path d="M44 165 c-9 -35 0 -41 14 -10 7 14 8 27 2 30 -5 3 -12 -6 -16 -20z"/>
</g>
</svg>
